# xmcd CD database file
#
# Track frame offsets:
#	150
#	14073
#	27806
#	42480
#	55330
#	68642
#	82193
#	96205
#	109759
#	122281
#	134055
#	147391
#	159376
#	172086
#	186235
#	200271
#	213370
#	227218
#	241389
#
# Disc length: 3378 seconds
#
# Revision: 3
# Processed by: cddbd v1.5.2PL0 Copyright (c) Steve Scherf et al.
# Submitted via: CDex 1.51
#
DISCID=170d3013
DTITLE=Billie Holiday - Billy Holiday  [CD 07-10]
DYEAR=1900
DGENRE=Jazz
TTITLE0=Long Gone Blues
TTITLE1=Some Other Spring
TTITLE2=Our Love Is Different
TTITLE3=Them There Eyes
TTITLE4=Swing, Brother, Swing
TTITLE5=Night And Day
TTITLE6=The Man I Love
TTITLE7=You're Just A No Account
TTITLE8=You're A Lucky Guy
TTITLE9=Ghost Of Yesterday
TTITLE10=Body And Soul
TTITLE11=What Is This Going To Get Us
TTITLE12=Falling In Love Again
TTITLE13=I'm Pulling Through
TTITLE14=Tell Me More And More, And Then Some
TTITLE15=Laughing At Life
TTITLE16=Time On My Hands
TTITLE17=I'm All For You
TTITLE18=I Hear Music
EXTD=Volume 7 of a 10-CD set.
EXTT0=
EXTT1=
EXTT2=
EXTT3=
EXTT4=
EXTT5=
EXTT6=
EXTT7=
EXTT8=
EXTT9=
EXTT10=
EXTT11=
EXTT12=
EXTT13=
EXTT14=
EXTT15=
EXTT16=
EXTT17=
EXTT18=
PLAYORDER=
